<mxfile host="app.diagrams.net" modified="2023-07-12T02:39:09.067Z" agent="Mozilla/5.0 (Macintosh; Intel Mac OS X 10_15_7) AppleWebKit/537.36 (KHTML, like Gecko) Chrome/114.0.0.0 Safari/537.36" etag="RawI7lvW1VcoheIJQtBi" version="21.3.7" type="github">
  <diagram name="第 1 页" id="BM5lb4kgWD_zZXN5rHR2">
    <mxGraphModel dx="524" dy="741" grid="1" gridSize="10" guides="1" tooltips="1" connect="1" arrows="1" fold="1" page="1" pageScale="1" pageWidth="827" pageHeight="1169" math="0" shadow="0">
      <root>
        <mxCell id="0" />
        <mxCell id="1" parent="0" />
        <mxCell id="rxF4gWscdkAUGcWrRO9E-14" value="" style="rounded=1;whiteSpace=wrap;html=1;fillColor=#d5e8d4;strokeColor=#82b366;" vertex="1" parent="1">
          <mxGeometry x="70" y="20" width="490" height="220" as="geometry" />
        </mxCell>
        <mxCell id="rxF4gWscdkAUGcWrRO9E-1" value="" style="rounded=1;whiteSpace=wrap;html=1;fillColor=#fff2cc;strokeColor=#d6b656;" vertex="1" parent="1">
          <mxGeometry x="140" y="120" width="410" height="110" as="geometry" />
        </mxCell>
        <mxCell id="rxF4gWscdkAUGcWrRO9E-2" value="交互层" style="text;html=1;align=center;verticalAlign=middle;resizable=0;points=[];autosize=1;rounded=0;" vertex="1" parent="1">
          <mxGeometry x="75" y="90" width="60" height="30" as="geometry" />
        </mxCell>
        <mxCell id="rxF4gWscdkAUGcWrRO9E-3" value="工作流API" style="rounded=1;whiteSpace=wrap;html=1;fillColor=#fff2cc;strokeColor=#d6b656;" vertex="1" parent="1">
          <mxGeometry x="260" y="130" width="80" height="40" as="geometry" />
        </mxCell>
        <mxCell id="rxF4gWscdkAUGcWrRO9E-4" value="&lt;span id=&quot;docs-internal-guid-9167f443-7fff-0bc8-a4bc-838c0dcd0c80&quot;&gt;&lt;/span&gt;插件管理API" style="rounded=1;whiteSpace=wrap;html=1;fillColor=#fff2cc;strokeColor=#d6b656;" vertex="1" parent="1">
          <mxGeometry x="160" y="180" width="80" height="40" as="geometry" />
        </mxCell>
        <mxCell id="rxF4gWscdkAUGcWrRO9E-5" value="Web" style="rounded=1;whiteSpace=wrap;html=1;fillColor=#d5e8d4;strokeColor=#82b366;" vertex="1" parent="1">
          <mxGeometry x="180" y="30" width="120" height="60" as="geometry" />
        </mxCell>
        <mxCell id="rxF4gWscdkAUGcWrRO9E-6" value="客户端" style="rounded=1;whiteSpace=wrap;html=1;fillColor=#d5e8d4;strokeColor=#82b366;" vertex="1" parent="1">
          <mxGeometry x="370" y="30" width="120" height="60" as="geometry" />
        </mxCell>
        <mxCell id="rxF4gWscdkAUGcWrRO9E-8" value="工程管理API" style="rounded=1;whiteSpace=wrap;html=1;fillColor=#fff2cc;strokeColor=#d6b656;" vertex="1" parent="1">
          <mxGeometry x="160" y="130" width="80" height="40" as="geometry" />
        </mxCell>
        <mxCell id="rxF4gWscdkAUGcWrRO9E-9" value="&lt;span id=&quot;docs-internal-guid-b78f5eb9-7fff-38b9-a81d-35460a2a63e1&quot;&gt;&lt;/span&gt;&lt;span id=&quot;docs-internal-guid-b78f5eb9-7fff-38b9-a81d-35460a2a63e1&quot;&gt;&lt;/span&gt;&lt;span id=&quot;docs-internal-guid-6e97094f-7fff-65f8-c591-af80082fb2ff&quot;&gt;&lt;/span&gt;&lt;span id=&quot;docs-internal-guid-6e97094f-7fff-65f8-c591-af80082fb2ff&quot;&gt;&lt;/span&gt;&lt;span id=&quot;docs-internal-guid-6e97094f-7fff-65f8-c591-af80082fb2ff&quot;&gt;&lt;/span&gt;&lt;span id=&quot;docs-internal-guid-6e97094f-7fff-65f8-c591-af80082fb2ff&quot;&gt;&lt;/span&gt;&lt;span id=&quot;docs-internal-guid-6e97094f-7fff-65f8-c591-af80082fb2ff&quot;&gt;&lt;/span&gt;&lt;span id=&quot;docs-internal-guid-6e97094f-7fff-65f8-c591-af80082fb2ff&quot;&gt;&lt;/span&gt;计算资源管理API" style="rounded=1;whiteSpace=wrap;html=1;fillColor=#fff2cc;strokeColor=#d6b656;" vertex="1" parent="1">
          <mxGeometry x="460" y="130" width="80" height="40" as="geometry" />
        </mxCell>
        <mxCell id="rxF4gWscdkAUGcWrRO9E-10" value="数据统计API" style="rounded=1;whiteSpace=wrap;html=1;fillColor=#fff2cc;strokeColor=#d6b656;" vertex="1" parent="1">
          <mxGeometry x="260" y="180" width="80" height="40" as="geometry" />
        </mxCell>
        <mxCell id="rxF4gWscdkAUGcWrRO9E-11" value="任务管理API" style="rounded=1;whiteSpace=wrap;html=1;fillColor=#fff2cc;strokeColor=#d6b656;" vertex="1" parent="1">
          <mxGeometry x="360" y="130" width="80" height="40" as="geometry" />
        </mxCell>
        <mxCell id="rxF4gWscdkAUGcWrRO9E-12" value="日志管理API" style="rounded=1;whiteSpace=wrap;html=1;fillColor=#fff2cc;strokeColor=#d6b656;" vertex="1" parent="1">
          <mxGeometry x="360" y="180" width="80" height="40" as="geometry" />
        </mxCell>
        <mxCell id="rxF4gWscdkAUGcWrRO9E-13" value="用户管理API" style="rounded=1;whiteSpace=wrap;html=1;fillColor=#fff2cc;strokeColor=#d6b656;" vertex="1" parent="1">
          <mxGeometry x="460" y="180" width="80" height="40" as="geometry" />
        </mxCell>
        <mxCell id="rxF4gWscdkAUGcWrRO9E-16" value="" style="rounded=1;whiteSpace=wrap;html=1;fillColor=#ffe6cc;strokeColor=#d79b00;" vertex="1" parent="1">
          <mxGeometry x="70" y="260" width="490" height="80" as="geometry" />
        </mxCell>
        <mxCell id="rxF4gWscdkAUGcWrRO9E-17" value="内核" style="text;html=1;align=center;verticalAlign=middle;resizable=0;points=[];autosize=1;strokeColor=none;fillColor=none;" vertex="1" parent="1">
          <mxGeometry x="80" y="285" width="50" height="30" as="geometry" />
        </mxCell>
        <mxCell id="rxF4gWscdkAUGcWrRO9E-18" value="" style="rounded=1;whiteSpace=wrap;html=1;fillColor=#f8cecc;strokeColor=#b85450;" vertex="1" parent="1">
          <mxGeometry x="140" y="270" width="410" height="60" as="geometry" />
        </mxCell>
        <mxCell id="rxF4gWscdkAUGcWrRO9E-19" value="插件扩展机制" style="rounded=1;whiteSpace=wrap;html=1;fillColor=#f8cecc;strokeColor=#b85450;" vertex="1" parent="1">
          <mxGeometry x="160" y="280" width="80" height="40" as="geometry" />
        </mxCell>
        <mxCell id="rxF4gWscdkAUGcWrRO9E-20" value="超算容器化计算模块" style="rounded=1;whiteSpace=wrap;html=1;fillColor=#f8cecc;strokeColor=#b85450;" vertex="1" parent="1">
          <mxGeometry x="360" y="280" width="80" height="40" as="geometry" />
        </mxCell>
        <mxCell id="rxF4gWscdkAUGcWrRO9E-21" value="工作流引擎" style="rounded=1;whiteSpace=wrap;html=1;fillColor=#f8cecc;strokeColor=#b85450;" vertex="1" parent="1">
          <mxGeometry x="260" y="280" width="80" height="40" as="geometry" />
        </mxCell>
        <mxCell id="rxF4gWscdkAUGcWrRO9E-22" value="数据管理模块" style="rounded=1;whiteSpace=wrap;html=1;fillColor=#f8cecc;strokeColor=#b85450;" vertex="1" parent="1">
          <mxGeometry x="460" y="280" width="80" height="40" as="geometry" />
        </mxCell>
        <mxCell id="rxF4gWscdkAUGcWrRO9E-23" value="" style="rounded=1;whiteSpace=wrap;html=1;fillColor=#dae8fc;strokeColor=#6c8ebf;" vertex="1" parent="1">
          <mxGeometry x="70" y="360" width="490" height="160" as="geometry" />
        </mxCell>
        <mxCell id="rxF4gWscdkAUGcWrRO9E-24" value="硬件层" style="text;html=1;align=center;verticalAlign=middle;resizable=0;points=[];autosize=1;strokeColor=none;fillColor=none;" vertex="1" parent="1">
          <mxGeometry x="75" y="440" width="60" height="30" as="geometry" />
        </mxCell>
        <mxCell id="rxF4gWscdkAUGcWrRO9E-26" value="本地工作站" style="text;html=1;align=center;verticalAlign=middle;resizable=0;points=[];autosize=1;strokeColor=none;fillColor=none;" vertex="1" parent="1">
          <mxGeometry x="240" y="472" width="80" height="30" as="geometry" />
        </mxCell>
        <mxCell id="rxF4gWscdkAUGcWrRO9E-28" value="" style="outlineConnect=0;dashed=0;verticalLabelPosition=bottom;verticalAlign=top;align=center;html=1;shape=mxgraph.aws3.traditional_server;fillColor=#7D7C7C;gradientColor=none;" vertex="1" parent="1">
          <mxGeometry x="256.75" y="394" width="46.5" height="63" as="geometry" />
        </mxCell>
        <mxCell id="rxF4gWscdkAUGcWrRO9E-29" value="" style="sketch=0;pointerEvents=1;shadow=0;dashed=0;html=1;strokeColor=none;fillColor=#505050;labelPosition=center;verticalLabelPosition=bottom;verticalAlign=top;outlineConnect=0;align=center;shape=mxgraph.office.servers.cluster_server;" vertex="1" parent="1">
          <mxGeometry x="380.5" y="394" width="49" height="59" as="geometry" />
        </mxCell>
        <mxCell id="rxF4gWscdkAUGcWrRO9E-30" value="超算集群" style="text;html=1;align=center;verticalAlign=middle;resizable=0;points=[];autosize=1;strokeColor=none;fillColor=none;" vertex="1" parent="1">
          <mxGeometry x="370" y="470" width="70" height="30" as="geometry" />
        </mxCell>
      </root>
    </mxGraphModel>
  </diagram>
</mxfile>
